<svg width="25" height="25" viewBox="0 0 25 25" fill="none" xmlns="http://www.w3.org/2000/svg">
    <path fill-rule="evenodd" clip-rule="evenodd" d="M12.5 0C19.4094 0 25 5.59139 25 12.5C25 19.3789 19.4275 25 12.5 25C5.5439 25 0 19.3474 0 12.5C0 5.59063 5.59139 0 12.5 0ZM23.5352 12.5C23.5352 6.41518 18.5848 1.46484 12.5 1.46484C6.41518 1.46484 1.46484 6.41518 1.46484 12.5C1.46484 14.7259 2.12688 16.8653 3.35464 18.6775C8.29372 13.3648 16.7152 13.3743 21.6454 18.6775C22.8731 16.8653 23.5352 14.7259 23.5352 12.5ZM4.26826 19.8486C8.65173 14.9319 16.3494 14.933 20.7315 19.8486C16.3334 24.7692 8.66833 24.7707 4.26826 19.8486ZM17.2414 8.59789C17.2414 11.0047 15.1144 12.963 12.5 12.963C9.88567 12.963 7.75864 11.0047 7.75864 8.59789V7.14287C7.75864 4.73601 9.88567 2.77779 12.5 2.77779C15.1144 2.77779 17.2414 4.73601 17.2414 7.14287V8.59789ZM12.5 4.23281C10.757 4.23281 9.3391 5.53817 9.3391 7.14287V8.59789C9.3391 10.2026 10.757 11.5079 12.5 11.5079C14.243 11.5079 15.6609 10.2026 15.6609 8.59789V7.14287C15.6609 5.53817 14.243 4.23281 12.5 4.23281Z" fill="#313131"/>
</svg>
