<svg width="1450" height="792" viewBox="0 0 1450 792" fill="none" xmlns="http://www.w3.org/2000/svg">
    <line y1="-6" x2="994.718" y2="-6" transform="matrix(0.757572 0.652752 -0.757572 0.652752 248.518 83.9824)" stroke="#C5EAF3" stroke-opacity="0.41" stroke-width="12"/>
    <line y1="-6" x2="629.635" y2="-6" transform="matrix(0.757572 0.652752 -0.757572 0.652752 513.069 33.9031)" stroke="#C5EAF3" stroke-opacity="0.41" stroke-width="12"/>
    <line y1="-6" x2="776.462" y2="-6" transform="matrix(0.757572 0.652752 -0.757572 0.652752 646.347 71.8943)" stroke="#C5EAF3" stroke-opacity="0.41" stroke-width="12"/>
    <line y1="-6" x2="920.643" y2="-6" transform="matrix(0.757572 0.652752 -0.757572 0.652752 687.432 26.1322)" stroke="#C5EAF3" stroke-opacity="0.41" stroke-width="12"/>
    <line y1="-6" x2="433.866" y2="-6" transform="matrix(0.757572 0.652752 -0.757572 0.652752 1111.32 43.4009)" stroke="#C5EAF3" stroke-opacity="0.41" stroke-width="12"/>
    <line y1="-6" x2="279.149" y2="-6" transform="matrix(0.758281 0.651928 -0.758281 0.651928 1159.42 8)" stroke="#C5EAF3" stroke-opacity="0.41" stroke-width="12"/>
    <line y1="-6" x2="994.717" y2="-6" transform="matrix(0.757572 0.652752 -0.757572 0.652752 136.284 45.9912)" stroke="#C5EAF3" stroke-opacity="0.41" stroke-width="12"/>
    <line y1="-6" x2="787.044" y2="-6" transform="matrix(0.757572 0.652752 -0.757572 0.652752 275.574 244.582)" stroke="#C5EAF3" stroke-opacity="0.41" stroke-width="12"/>
    <line y1="-6" x2="470.904" y2="-6" transform="matrix(0.757572 0.652752 -0.757572 0.652752 334.697 370.643)" stroke="#C5EAF3" stroke-opacity="0.41" stroke-width="12"/>
    <line y1="-6" x2="531.751" y2="-6" transform="matrix(0.757572 0.652752 -0.757572 0.652752 3.00635 444.899)" stroke="#C5EAF3" stroke-opacity="0.41" stroke-width="12"/>
    <line y1="-6" x2="300.772" y2="-6" transform="matrix(0.75525 0.655438 -0.758093 0.652147 0 501.885)" stroke="#C5EAF3" stroke-opacity="0.41" stroke-width="12"/>
    <line y1="-6" x2="300.831" y2="-6" transform="matrix(0.756151 0.654397 -0.758988 0.651104 34.071 595.137)" stroke="#C5EAF3" stroke-opacity="0.41" stroke-width="12"/>
    <ellipse cx="345.72" cy="370.643" rx="25.0522" ry="21.5859" fill="#F3F3F3" fill-opacity="0.9"/>
    <path d="M366.272 370.643C366.272 379.474 357.723 387.729 345.72 387.729C333.717 387.729 325.168 379.474 325.168 370.643C325.168 361.812 333.717 353.557 345.72 353.557C357.723 353.557 366.272 361.812 366.272 370.643Z" stroke="#C5EAF3" stroke-opacity="0.41" stroke-width="9"/>
    <ellipse cx="71.1481" cy="557.146" rx="25.0522" ry="21.5859" fill="#F3F3F3" fill-opacity="0.9"/>
    <path d="M91.7003 557.145C91.7003 565.976 83.1511 574.231 71.1481 574.231C59.1452 574.231 50.5959 565.976 50.5959 557.145C50.5959 548.315 59.1452 540.06 71.1481 540.06C83.1511 540.06 91.7003 548.315 91.7003 557.145Z" stroke="#C5EAF3" stroke-opacity="0.41" stroke-width="9"/>
    <ellipse cx="202.422" cy="733.286" rx="25.0522" ry="21.5859" fill="#F3F3F3" fill-opacity="0.9"/>
    <path d="M222.974 733.286C222.974 742.117 214.425 750.372 202.422 750.372C190.419 750.372 181.87 742.117 181.87 733.286C181.87 724.456 190.419 716.2 202.422 716.2C214.425 716.2 222.974 724.456 222.974 733.286Z" stroke="#C5EAF3" stroke-opacity="0.41" stroke-width="9"/>
    <ellipse cx="699.457" cy="466.485" rx="25.0522" ry="21.5859" fill="#F3F3F3" fill-opacity="0.9"/>
    <path d="M720.009 466.485C720.009 475.315 711.46 483.57 699.457 483.57C687.454 483.57 678.905 475.315 678.905 466.485C678.905 457.654 687.454 449.399 699.457 449.399C711.46 449.399 720.009 457.654 720.009 466.485Z" stroke="#C5EAF3" stroke-opacity="0.41" stroke-width="9"/>
    <ellipse cx="760.585" cy="656.44" rx="25.0522" ry="21.586" fill="#F3F3F3" fill-opacity="0.9"/>
    <path d="M781.137 656.44C781.137 665.271 772.587 673.526 760.585 673.526C748.582 673.526 740.032 665.271 740.032 656.44C740.032 647.61 748.582 639.354 760.585 639.354C772.587 639.354 781.137 647.61 781.137 656.44Z" stroke="#C5EAF3" stroke-opacity="0.41" stroke-width="9"/>
    <ellipse cx="1099.29" cy="370.643" rx="25.0521" ry="21.5859" fill="#F3F3F3" fill-opacity="0.9"/>
    <path d="M1119.84 370.643C1119.84 379.474 1111.29 387.729 1099.29 387.729C1087.29 387.729 1078.74 379.474 1078.74 370.643C1078.74 361.812 1087.29 353.557 1099.29 353.557C1111.29 353.557 1119.84 361.812 1119.84 370.643Z" stroke="#C5EAF3" stroke-opacity="0.41" stroke-width="9"/>
    <ellipse cx="656.367" cy="71.8942" rx="25.0522" ry="21.5859" fill="#F3F3F3" fill-opacity="0.9"/>
    <path d="M676.92 71.8942C676.92 80.7249 668.37 88.9801 656.367 88.9801C644.364 88.9801 635.815 80.7249 635.815 71.8942C635.815 63.0635 644.364 54.8083 656.367 54.8083C668.37 54.8083 676.92 63.0635 676.92 71.8942Z" stroke="#C5EAF3" stroke-opacity="0.41" stroke-width="9"/>
    <ellipse cx="1175.45" cy="93.4802" rx="25.0522" ry="21.5859" fill="#F3F3F3" fill-opacity="0.9"/>
    <path d="M1196 93.4802C1196 102.311 1187.45 110.566 1175.45 110.566C1163.45 110.566 1154.9 102.311 1154.9 93.4802C1154.9 84.6495 1163.45 76.3943 1175.45 76.3943C1187.45 76.3943 1196 84.6495 1196 93.4802Z" stroke="#C5EAF3" stroke-opacity="0.41" stroke-width="9"/>
    <ellipse cx="1370.86" cy="185.004" rx="25.0522" ry="21.5859" fill="#F3F3F3" fill-opacity="0.9"/>
    <path d="M1391.41 185.004C1391.41 193.835 1382.86 202.09 1370.86 202.09C1358.85 202.09 1350.3 193.835 1350.3 185.004C1350.3 176.174 1358.85 167.918 1370.86 167.918C1382.86 167.918 1391.41 176.174 1391.41 185.004Z" stroke="#C5EAF3" stroke-opacity="0.41" stroke-width="9"/>
    <rect y="8" width="1443" height="784" fill="url(#paint0_linear)"/>
    <defs>
        <linearGradient id="paint0_linear" x1="0" y1="400" x2="1443" y2="400" gradientUnits="userSpaceOnUse">
            <stop stop-color="#3AB9DA"/>
            <stop offset="1" stop-color="#C4EAF5" stop-opacity="0"/>
        </linearGradient>
    </defs>
</svg>
