<svg width="141" height="14" viewBox="0 0 141 14" fill="none" xmlns="http://www.w3.org/2000/svg">
    <path d="M0.0605469 2.84V-9.53674e-07H8.26055V14H3.04055V2.84H0.0605469ZM12.0559 14V3.4H15.6359L16.6559 4.4L17.6559 3.4H25.0559L29.9559 5.8V14H24.9559V6.6L23.7559 6H17.0559V14H12.0559ZM31.5645 8.2V5.6H34.0645V2.4L38.9645 -9.53674e-07H48.9645V4.4L43.9645 3.9V2.6H40.2645L39.0645 3.2V5.6H44.9645V8.2H39.0645V14H34.0645V8.2H31.5645ZM49.966 14V3.4H68.066V14H49.966ZM54.966 11.4H63.066V6H54.966V11.4ZM69.8652 2.84V-9.53674e-07H91.9652V5.06L86.7452 4.34V2.84H78.0652V6.56H86.7452V9.4H78.0652V14H72.8452V2.84H69.8652ZM94.5605 14V-9.53674e-07H115.341V14H94.5605ZM99.7805 11.16H110.121V2.84H99.7805V11.16ZM117.746 2.84V-9.53674e-07H124.546L129.346 4.3L133.946 -9.53674e-07H140.446L132.946 7L137.546 11.16H140.546V14H133.746L128.946 9.7L124.346 14H117.846L125.346 7L120.746 2.84H117.746Z" fill="#313131"/>
</svg>
