<svg width="52" height="52" viewBox="0 0 52 52" fill="none" xmlns="http://www.w3.org/2000/svg">
<path fill-rule="evenodd" clip-rule="evenodd" d="M51 26C51 39.8071 39.8071 51 26 51C12.1929 51 1 39.8071 1 26C1 12.1929 12.1929 1 26 1C39.8071 1 51 12.1929 51 26ZM52 26C52 40.3594 40.3594 52 26 52C11.6406 52 0 40.3594 0 26C0 11.6406 11.6406 0 26 0C40.3594 0 52 11.6406 52 26ZM30.6758 37.8382L11.1194 26.5541C10.3163 26.0923 10.3163 24.928 11.1194 24.4459L30.6758 13.1618C31.4789 12.7 32.4828 13.2823 32.4828 14.2059V36.7941C32.4828 37.7177 31.4789 38.3 30.6758 37.8382Z" fill="white"/>
</svg>
