<svg width="30" height="25" viewBox="0 0 30 25" fill="none" xmlns="http://www.w3.org/2000/svg">
    <path d="M27.1875 0H2.81252C1.2616 0 0 1.40178 0 3.12502V21.875C0 23.5982 1.2616 25 2.81252 25H27.1875C28.7384 25 30 23.5982 30 21.875V3.12502C30 1.40178 28.7384 0 27.1875 0ZM27.1875 2.08332C27.3149 2.08332 27.436 2.11269 27.5468 2.16397L15 14.2466L2.45313 2.16397C2.56391 2.11275 2.68508 2.08332 2.81246 2.08332H27.1875ZM27.1875 22.9166H2.81252C2.29525 22.9166 1.87499 22.4497 1.87499 21.8749V4.36502L14.3857 16.4123C14.5624 16.5822 14.7812 16.6666 15 16.6666C15.2188 16.6666 15.4376 16.5822 15.6143 16.4123L28.125 4.36502V21.875C28.1249 22.4497 27.7047 22.9166 27.1875 22.9166Z" fill="#313131"/>
</svg>
