<svg width="25" height="24" viewBox="0 0 25 24" fill="none" xmlns="http://www.w3.org/2000/svg">
    <path fill-rule="evenodd" clip-rule="evenodd" d="M13.0435 23.9132C8.09665 23.9132 3.72938 20.9371 1.91525 16.3304C1.75005 15.9131 1.95644 15.4392 2.375 15.274C2.79236 15.111 3.26744 15.3142 3.43263 15.7349C4.99898 19.7121 8.77175 22.2827 13.0435 22.2827C18.7369 22.2827 23.3696 17.65 23.3696 11.9566C23.3696 6.2632 18.7369 1.63043 13.0435 1.63043C8.77175 1.63043 4.99898 4.20108 3.43263 8.17825C3.26625 8.59899 2.79236 8.8022 2.375 8.63919C1.95644 8.474 1.75005 8.00012 1.91525 7.58276C3.72938 2.97606 8.09665 0 13.0435 0C19.6359 0 25.0001 5.36419 25.0001 11.9566C25.0001 18.549 19.6359 23.9132 13.0435 23.9132ZM12.2283 17.1196C12.0196 17.1196 11.811 17.0404 11.6522 16.8805C11.3337 16.5621 11.3337 16.0458 11.6522 15.7272L14.6077 12.7718H0.815217C0.365216 12.7718 0 12.4066 0 11.9566C0 11.5066 0.365216 11.1414 0.815217 11.1414H14.6097L11.6522 8.18383C11.3337 7.86538 11.3337 7.3489 11.6522 7.03046C11.9708 6.71201 12.4871 6.71201 12.8055 7.03046L17.1533 11.3784C17.4389 11.664 17.4683 12.1087 17.2417 12.4271C17.2104 12.4713 17.1749 12.5122 17.1356 12.5492L12.8055 16.8793C12.6457 17.0404 12.4371 17.1196 12.2283 17.1196Z" fill="#313131"/>
</svg>
