<svg width="25" height="25" viewBox="0 0 25 25" fill="none" xmlns="http://www.w3.org/2000/svg">
    <path d="M24.764 12.1185C24.7739 12.1065 24.7825 12.0938 24.7918 12.0814C24.8028 12.0666 24.8144 12.0521 24.8247 12.0366C24.8346 12.0219 24.8432 12.0065 24.8523 11.9912C24.8606 11.9773 24.8693 11.9637 24.8771 11.9492C24.8854 11.9337 24.8924 11.9178 24.8999 11.9019C24.9069 11.8869 24.9144 11.8722 24.9208 11.8569C24.9271 11.8415 24.9322 11.8258 24.9378 11.8102C24.9438 11.7937 24.9501 11.7775 24.9552 11.7606C24.9599 11.745 24.9634 11.7291 24.9673 11.7134C24.9717 11.6962 24.9765 11.6793 24.9799 11.6618C24.9836 11.6435 24.9857 11.625 24.9883 11.6066C24.9905 11.5914 24.9934 11.5765 24.9949 11.5611C25.0017 11.4927 25.0017 11.4238 24.9949 11.3555C24.9934 11.3401 24.9905 11.3251 24.9883 11.31C24.9857 11.2915 24.9836 11.273 24.9799 11.2548C24.9764 11.2373 24.9716 11.2204 24.9673 11.2033C24.9633 11.1875 24.9599 11.1716 24.9551 11.156C24.9501 11.1392 24.9438 11.1229 24.9378 11.1065C24.9322 11.0909 24.9271 11.0752 24.9208 11.0598C24.9144 11.0444 24.9069 11.0297 24.8999 11.0148C24.8924 10.9989 24.8854 10.9829 24.8771 10.9674C24.8694 10.953 24.8606 10.9394 24.8523 10.9255C24.8432 10.9102 24.8346 10.8948 24.8247 10.88C24.8144 10.8646 24.8029 10.8501 24.7919 10.8353C24.7826 10.8229 24.7739 10.8102 24.764 10.7981C24.7424 10.7718 24.7196 10.7465 24.6956 10.7224C24.6954 10.7222 24.6952 10.722 24.695 10.7218L21.57 7.59689C21.1632 7.19012 20.5037 7.19012 20.0969 7.59689C19.6901 8.00366 19.6901 8.66322 20.0969 9.06999L21.4437 10.4167H15.6251C15.0498 10.4167 14.5834 10.8831 14.5834 11.4583C14.5834 12.0336 15.0498 12.5 15.6251 12.5H21.4436L20.0968 13.8467C19.69 14.2535 19.69 14.913 20.0968 15.3198C20.5036 15.7266 21.1632 15.7266 21.57 15.3198L24.695 12.1949C24.6952 12.1947 24.6953 12.1945 24.6955 12.1943C24.7196 12.1702 24.7424 12.1449 24.764 12.1185Z" fill="#313131"/>
    <path d="M17.7087 14.5829C17.1335 14.5829 16.6671 15.0492 16.6671 15.6245V20.8327H12.5004V4.16692V4.16653C12.5004 3.70653 12.1987 3.30098 11.7581 3.1688L8.13945 2.08324H16.6671V7.29143C16.6671 7.86671 17.1335 8.33305 17.7088 8.33305C18.2841 8.33305 18.7504 7.86671 18.7504 7.29143V1.04162C18.7504 0.466345 18.2841 1.18273e-06 17.7088 1.18273e-06H1.04207C1.04198 1.18273e-06 1.04188 1.18273e-06 1.04178 1.18273e-06C1.01097 -4.76439e-05 0.980452 0.00141715 0.950178 0.00405379C0.472346 0.0400879 0.160871 0.354385 0.0476869 0.729618C0.0404115 0.752957 0.0340638 0.776784 0.0283998 0.800905C0.0278138 0.803492 0.0273255 0.806129 0.0267396 0.808766C0.0211243 0.83357 0.0164368 0.858764 0.0125794 0.884301C0.0120423 0.887914 0.0114564 0.891478 0.0109193 0.895091C0.00764777 0.918382 0.00505988 0.941965 0.00335089 0.965841C0.000323544 1.00432 -0.000604192 1.04289 0.000372372 1.08146V21.8747C0.000372372 22.3712 0.350861 22.7988 0.837776 22.8961L11.2544 24.9794C11.899 25.1083 12.5004 24.6153 12.5004 23.958V22.916H17.7087C18.284 22.916 18.7504 22.4496 18.7504 21.8743V15.6245C18.7504 15.0492 18.284 14.5829 17.7087 14.5829ZM10.4171 22.6874L2.08372 21.0208V2.44202L10.4171 4.94194V21.8743V22.6874Z" fill="#313131"/>
</svg>
