<svg width="52" height="52" viewBox="0 0 52 52" fill="none" xmlns="http://www.w3.org/2000/svg">
<path fill-rule="evenodd" clip-rule="evenodd" d="M51 26C51 39.8071 39.8071 51 26 51C12.1929 51 1 39.8071 1 26C1 12.1929 12.1929 1 26 1C39.8071 1 51 12.1929 51 26ZM52 26C52 40.3594 40.3594 52 26 52C11.6406 52 0 40.3594 0 26C0 11.6406 11.6406 0 26 0C40.3594 0 52 11.6406 52 26ZM20.3242 13.1618L39.8806 24.4459C40.6837 24.9077 40.6837 26.072 39.8806 26.5541L20.3242 37.8382C19.5211 38.3 18.5172 37.7177 18.5172 36.7941V14.2059C18.5172 13.2823 19.5211 12.7 20.3242 13.1618Z" fill="#20D1FF"/>
</svg>
