<svg width="53" height="63" viewBox="0 0 53 63" fill="none" xmlns="http://www.w3.org/2000/svg">
<path d="M26.4996 0C12.3211 0 0.786133 10.2353 0.786133 22.8161C0.786133 38.4293 23.7972 61.3503 24.7769 62.3184C25.6971 63.2279 27.3038 63.2263 28.2224 62.3184C29.2021 61.3503 52.2131 38.4293 52.2131 22.8161C52.2129 10.2353 40.678 0 26.4996 0ZM26.4996 34.2955C19.3661 34.2955 13.5627 29.1459 13.5627 22.8161C13.5627 16.4863 19.3662 11.3368 26.4996 11.3368C33.6331 11.3368 39.4365 16.4864 39.4365 22.8162C39.4365 29.146 33.6331 34.2955 26.4996 34.2955Z" fill="#00BCED"/>
</svg>
